<mxfile host="app.diagrams.net" modified="2021-08-10T02:29:19.747Z" agent="5.0 (Windows NT 10.0; Win64; x64) AppleWebKit/537.36 (KHTML, like Gecko) Chrome/92.0.4515.131 Safari/537.36" etag="gxGGc5cxGFxZVlYviUTg" version="14.9.3" type="github">
  <diagram id="2e5GOC_ECQxUpn0FryQw" name="RMICommunication">
    <mxGraphModel dx="843" dy="326" grid="1" gridSize="10" guides="1" tooltips="1" connect="1" arrows="1" fold="1" page="1" pageScale="1" pageWidth="850" pageHeight="1100" math="0" shadow="0">
      <root>
        <mxCell id="0" />
        <mxCell id="1" parent="0" />
        <mxCell id="6MN_6t11uP7ycfmZAtff-3" value="SERVER" style="points=[];aspect=fixed;html=1;align=center;shadow=0;dashed=0;image;image=img/lib/allied_telesis/computer_and_terminals/Server_Desktop.svg;" vertex="1" parent="1">
          <mxGeometry x="620" y="128.75" width="42.599999999999994" height="54" as="geometry" />
        </mxCell>
        <mxCell id="6MN_6t11uP7ycfmZAtff-4" value="Client" style="outlineConnect=0;fontColor=#232F3E;gradientColor=none;strokeColor=#232F3E;fillColor=#ffffff;dashed=0;verticalLabelPosition=bottom;verticalAlign=top;align=center;html=1;fontSize=12;fontStyle=0;aspect=fixed;shape=mxgraph.aws4.resourceIcon;resIcon=mxgraph.aws4.client;" vertex="1" parent="1">
          <mxGeometry x="120" y="140" width="60" height="60" as="geometry" />
        </mxCell>
        <mxCell id="6MN_6t11uP7ycfmZAtff-8" style="edgeStyle=orthogonalEdgeStyle;rounded=0;orthogonalLoop=1;jettySize=auto;html=1;exitX=1;exitY=0.5;exitDx=0;exitDy=0;" edge="1" parent="1" source="6MN_6t11uP7ycfmZAtff-5" target="6MN_6t11uP7ycfmZAtff-3">
          <mxGeometry relative="1" as="geometry" />
        </mxCell>
        <mxCell id="6MN_6t11uP7ycfmZAtff-5" value="NETWORK" style="aspect=fixed;perimeter=ellipsePerimeter;html=1;align=center;shadow=0;dashed=0;spacingTop=3;image;image=img/lib/active_directory/internet_cloud.svg;" vertex="1" parent="1">
          <mxGeometry x="340" y="90" width="129.37" height="81.5" as="geometry" />
        </mxCell>
        <mxCell id="6MN_6t11uP7ycfmZAtff-6" value="Product P1 = new Product()" style="rounded=0;whiteSpace=wrap;html=1;" vertex="1" parent="1">
          <mxGeometry x="630" y="250" width="190" height="130" as="geometry" />
        </mxCell>
        <mxCell id="6MN_6t11uP7ycfmZAtff-7" value="" style="edgeStyle=elbowEdgeStyle;elbow=horizontal;endArrow=classic;html=1;entryX=0;entryY=0.75;entryDx=0;entryDy=0;" edge="1" parent="1" source="6MN_6t11uP7ycfmZAtff-4" target="6MN_6t11uP7ycfmZAtff-5">
          <mxGeometry width="50" height="50" relative="1" as="geometry">
            <mxPoint x="170" y="200" as="sourcePoint" />
            <mxPoint x="220" y="150" as="targetPoint" />
          </mxGeometry>
        </mxCell>
        <mxCell id="6MN_6t11uP7ycfmZAtff-9" value="" style="edgeStyle=elbowEdgeStyle;elbow=vertical;endArrow=classic;html=1;" edge="1" parent="1">
          <mxGeometry width="50" height="50" relative="1" as="geometry">
            <mxPoint x="660" y="250" as="sourcePoint" />
            <mxPoint x="670" y="156" as="targetPoint" />
            <Array as="points">
              <mxPoint x="700" y="203" />
            </Array>
          </mxGeometry>
        </mxCell>
        <mxCell id="6MN_6t11uP7ycfmZAtff-10" value="P1.getDescription()" style="rounded=0;whiteSpace=wrap;html=1;" vertex="1" parent="1">
          <mxGeometry x="90" y="280" width="120" height="60" as="geometry" />
        </mxCell>
        <mxCell id="6MN_6t11uP7ycfmZAtff-13" value="" style="edgeStyle=elbowEdgeStyle;elbow=horizontal;endArrow=classic;html=1;exitX=0.056;exitY=-0.011;exitDx=0;exitDy=0;exitPerimeter=0;" edge="1" parent="1" source="6MN_6t11uP7ycfmZAtff-10" target="6MN_6t11uP7ycfmZAtff-4">
          <mxGeometry width="50" height="50" relative="1" as="geometry">
            <mxPoint x="60" y="210" as="sourcePoint" />
            <mxPoint x="110" y="160" as="targetPoint" />
          </mxGeometry>
        </mxCell>
        <mxCell id="6MN_6t11uP7ycfmZAtff-14" value="P1&lt;br&gt;P2&lt;br&gt;P3&lt;br&gt;.&lt;br&gt;.&lt;br&gt;" style="rounded=1;whiteSpace=wrap;html=1;" vertex="1" parent="1">
          <mxGeometry x="710" y="100" width="130" height="83" as="geometry" />
        </mxCell>
        <mxCell id="6MN_6t11uP7ycfmZAtff-15" value="RMI REGISTRY" style="text;html=1;align=center;verticalAlign=middle;resizable=0;points=[];autosize=1;strokeColor=none;" vertex="1" parent="1">
          <mxGeometry x="730" y="190" width="100" height="20" as="geometry" />
        </mxCell>
        <mxCell id="6MN_6t11uP7ycfmZAtff-16" value="JVM" style="text;html=1;align=center;verticalAlign=middle;resizable=0;points=[];autosize=1;strokeColor=none;" vertex="1" parent="1">
          <mxGeometry x="700" y="380" width="40" height="20" as="geometry" />
        </mxCell>
        <mxCell id="6MN_6t11uP7ycfmZAtff-17" value="" style="endArrow=none;dashed=1;html=1;entryX=0;entryY=1;entryDx=0;entryDy=0;exitX=0.193;exitY=-0.026;exitDx=0;exitDy=0;exitPerimeter=0;" edge="1" parent="1" source="6MN_6t11uP7ycfmZAtff-6" target="6MN_6t11uP7ycfmZAtff-14">
          <mxGeometry width="50" height="50" relative="1" as="geometry">
            <mxPoint x="670" y="260" as="sourcePoint" />
            <mxPoint x="720" y="210" as="targetPoint" />
            <Array as="points" />
          </mxGeometry>
        </mxCell>
        <mxCell id="6MN_6t11uP7ycfmZAtff-18" value="&lt;b&gt;Client.java&lt;/b&gt;" style="text;html=1;strokeColor=none;fillColor=none;align=center;verticalAlign=middle;whiteSpace=wrap;rounded=0;" vertex="1" parent="1">
          <mxGeometry x="90" y="370" width="40" height="20" as="geometry" />
        </mxCell>
        <mxCell id="6MN_6t11uP7ycfmZAtff-19" value="&lt;b&gt;Server.java&lt;br&gt;Product.java&lt;/b&gt;" style="text;html=1;align=center;verticalAlign=middle;resizable=0;points=[];autosize=1;strokeColor=none;" vertex="1" parent="1">
          <mxGeometry x="585" y="75" width="90" height="30" as="geometry" />
        </mxCell>
      </root>
    </mxGraphModel>
  </diagram>
</mxfile>
